<svg id="Grupo_6622" data-name="Grupo 6622" xmlns="http://www.w3.org/2000/svg" xmlns:xlink="http://www.w3.org/1999/xlink" width="32" height="32" viewBox="0 0 32 32">
  <defs>
    <clipPath id="clip-path">
      <rect id="Retângulo_4288" data-name="Retângulo 4288" width="32" height="32" fill="#fff"/>
    </clipPath>
  </defs>
  <g id="Grupo_6622-2" data-name="Grupo 6622" clip-path="url(#clip-path)">
    <path id="Caminho_3774" data-name="Caminho 3774" d="M9.66,436.1a4.24,4.24,0,1,1-2.577-2.39c.242-.3.565-.743.922-1.251a5.722,5.722,0,1,0,2.858,2.67c-.434.328-.859.666-1.2.971" transform="translate(0 -411.468)" fill="#fff"/>
    <path id="Caminho_3775" data-name="Caminho 3775" d="M13.742,11.453a5.735,5.735,0,0,0,2.371-.509c-.337-.5-.653-.932-.91-1.245a4.226,4.226,0,1,1,2.5-2.465c.332.255.761.577,1.239.919a5.746,5.746,0,1,0-5.2,3.3" transform="translate(-7.619)" fill="#fff"/>
    <path id="Caminho_3776" data-name="Caminho 3776" d="M436.242,432.333a5.737,5.737,0,0,0-2.262.462c.357.508.68.951.922,1.251a4.226,4.226,0,1,1-2.577,2.39c-.344-.306-.768-.643-1.2-.971a5.746,5.746,0,1,0,5.12-3.132" transform="translate(-409.985 -411.787)" fill="#fff"/>
    <path id="Caminho_3777" data-name="Caminho 3777" d="M424.279,7.567a4.239,4.239,0,1,1,2.5,2.465c-.258.313-.573.75-.91,1.245a5.723,5.723,0,1,0-2.832-2.791c.478-.343.906-.665,1.239-.919" transform="translate(-402.366 -0.317)" fill="#fff"/>
    <path id="Caminho_3778" data-name="Caminho 3778" d="M92.075,95.393a2.336,2.336,0,1,0,2.276-1.807,2.358,2.358,0,0,0-.328.023,4.847,4.847,0,0,1-1.29-.948c-.919-.983-3.859-5.565-3.859-5.565a3.565,3.565,0,0,1,0-3.382s2.656-4.532,3.642-5.281a5.513,5.513,0,0,1,.936-.684,2.325,2.325,0,1,0-1.619-1.666,5.908,5.908,0,0,1-.7.829,34.928,34.928,0,0,1-5.3,3.56,3.27,3.27,0,0,1-1.74.407v-.016a3.27,3.27,0,0,1-1.74-.407,34.93,34.93,0,0,1-5.3-3.56,5.905,5.905,0,0,1-.7-.828,2.337,2.337,0,1,0-1.619,1.666,5.514,5.514,0,0,1,.936.684c.986.75,3.642,5.281,3.642,5.281a3.565,3.565,0,0,1,0,3.382s-2.94,4.582-3.859,5.565a4.848,4.848,0,0,1-1.29.948,2.359,2.359,0,0,0-.328-.023,2.331,2.331,0,1,0,2.276,1.807,7.136,7.136,0,0,1,.9-1.291,36.731,36.731,0,0,1,3.9-2.949c2.045-1.411,3.032-1.417,3.177-1.409v.016c.145-.008,1.132,0,3.177,1.409a36.724,36.724,0,0,1,3.9,2.949,7.136,7.136,0,0,1,.9,1.291" transform="translate(-68.093 -69.689)" fill="#fff"/>
  </g>
</svg>
