<svg width="71" height="48" viewBox="0 0 71 48" fill="none" xmlns="http://www.w3.org/2000/svg">
<path d="M62.1 0.734863H8.9C4.2625 0.734863 0.5 4.49736 0.5 9.13486V39.4565C0.5 44.094 4.2625 47.8565 8.9 47.8565H62.1C66.7375 47.8565 70.5 44.094 70.5 39.4565V9.13486C70.5 4.49736 66.7375 0.734863 62.1 0.734863ZM50.7425 9.90486C50.7425 8.6682 51.7458 7.66486 52.9825 7.66486H54.0792C55.3158 7.66486 56.3192 8.6682 56.3192 9.90486V11.0015C56.3192 12.2382 55.3158 13.2415 54.0792 13.2415H52.9825C51.7458 13.2415 50.7425 12.2382 50.7425 11.0015V9.90486ZM50.7425 18.5849C50.7425 17.3482 51.7458 16.3449 52.9825 16.3449H54.0792C55.3158 16.3449 56.3192 17.3482 56.3192 18.5849V19.6815C56.3192 20.9182 55.3158 21.9215 54.0792 21.9215H52.9825C51.7458 21.9215 50.7425 20.9182 50.7425 19.6815V18.5849ZM50.7425 27.2707C50.7425 26.034 51.7458 25.0307 52.9825 25.0307H54.0792C55.3158 25.0307 56.3192 26.034 56.3192 27.2707V28.3674C56.3192 29.604 55.3158 30.6074 54.0792 30.6074H52.9825C51.7458 30.6074 50.7425 29.604 50.7425 28.3674V27.2707ZM42.6283 9.90486C42.6283 8.6682 43.6317 7.66486 44.8683 7.66486H45.965C47.2017 7.66486 48.205 8.6682 48.205 9.90486V11.0015C48.205 12.2382 47.2017 13.2415 45.965 13.2415H44.8683C43.6317 13.2415 42.6283 12.2382 42.6283 11.0015V9.90486ZM42.6283 18.5849C42.6283 17.3482 43.6317 16.3449 44.8683 16.3449H45.965C47.2017 16.3449 48.205 17.3482 48.205 18.5849V19.6815C48.205 20.9182 47.2017 21.9215 45.965 21.9215H44.8683C43.6317 21.9215 42.6283 20.9182 42.6283 19.6815V18.5849ZM42.6283 27.2707C42.6283 26.034 43.6317 25.0307 44.8683 25.0307H45.965C47.2017 25.0307 48.205 26.034 48.205 27.2707V28.3674C48.205 29.604 47.2017 30.6074 45.965 30.6074H44.8683C43.6317 30.6074 42.6283 29.604 42.6283 28.3674V27.2707ZM36.935 35.3265C36.935 38.4182 34.4267 40.9265 31.335 40.9265H12.1725C9.08083 40.9265 6.5725 38.4182 6.5725 35.3265V13.259C6.5725 10.1674 9.08083 7.65903 12.1725 7.65903H31.335C34.4267 7.65903 36.935 10.1674 36.935 13.259V35.3265ZM64.4275 38.6865C64.4275 39.9232 63.4242 40.9265 62.1875 40.9265H44.8625C43.6258 40.9265 42.6225 39.9232 42.6225 38.6865V37.5957C42.6225 36.359 43.6258 35.3557 44.8625 35.3557H62.1875C63.4242 35.3557 64.4275 36.359 64.4275 37.5957V38.6865ZM64.4275 28.3615C64.4275 29.5982 63.4242 30.6015 62.1875 30.6015H61.0967C59.86 30.6015 58.8567 29.5982 58.8567 28.3615V27.2649C58.8567 26.0282 59.86 25.0249 61.0967 25.0249H62.1875C63.4242 25.0249 64.4275 26.0282 64.4275 27.2649V28.3615ZM64.4275 19.6815C64.4275 20.9182 63.4242 21.9215 62.1875 21.9215H61.0967C59.86 21.9215 58.8567 20.9182 58.8567 19.6815V18.5849C58.8567 17.3482 59.86 16.3449 61.0967 16.3449H62.1875C63.4242 16.3449 64.4275 17.3482 64.4275 18.5849V19.6815ZM64.4275 10.9957C64.4275 12.2324 63.4242 13.2357 62.1875 13.2357H61.0967C59.86 13.2357 58.8567 12.2324 58.8567 10.9957V9.89903C58.8567 8.66236 59.86 7.65903 61.0967 7.65903H62.1875C63.4242 7.65903 64.4275 8.66236 64.4275 9.89903V10.9957Z" fill="#00863F"/>
</svg>
