<svg xmlns="http://www.w3.org/2000/svg" xmlns:xlink="http://www.w3.org/1999/xlink" width="572" height="135.934" viewBox="0 0 572 135.934">
  <defs>
    <clipPath id="clip-path">
      <rect id="Retângulo_3132" data-name="Retângulo 3132" width="572" height="135.934" fill="none"/>
    </clipPath>
  </defs>
  <g id="Grupo_5119" data-name="Grupo 5119" transform="translate(0 0)">
    <g id="Grupo_5118" data-name="Grupo 5118" transform="translate(0 0)" clip-path="url(#clip-path)">
      <path id="Caminho_2671" data-name="Caminho 2671" d="M0,11.97H23.457c20.693,0,34.009,12.087,34.009,32.78S44.15,77.835,23.457,77.835H0ZM22.742,64.006c11.166,0,17.926-6.659,17.926-19.259,0-12.5-7.069-18.95-17.926-18.95H16.077v38.21Z" transform="translate(0 19.069)" fill="#fff"/>
      <path id="Caminho_2672" data-name="Caminho 2672" d="M25.716,11.97H67.1V25.8H41.9V37.784H61.978V51.614H41.9v12.4H68.329V77.835H25.716Z" transform="translate(40.969 19.069)" fill="#fff"/>
      <path id="Caminho_2673" data-name="Caminho 2673" d="M45.863,11.97H86.222V25.8H61.94V39.628H82.019V53.46H61.94V77.835H45.863V11.97" transform="translate(73.065 19.069)" fill="#fff"/>
      <path id="Caminho_2674" data-name="Caminho 2674" d="M64.587,11.97h41.282V25.8H80.664V37.784h20.078V51.614H80.664v12.4h26.429V77.835H64.587Z" transform="translate(102.895 19.069)" fill="#fff"/>
      <path id="Caminho_2675" data-name="Caminho 2675" d="M84.694,11.97h16.287L119.214,42.8a118.943,118.943,0,0,1,5.531,11.267h.2S124.231,47,124.231,42.8V11.97h16.077V77.835H124.125L105.789,47.1a119.151,119.151,0,0,1-5.536-11.277h-.1s.718,7.069.718,11.267V77.835H84.79V11.97Z" transform="translate(134.927 19.069)" fill="#fff"/>
      <path id="Caminho_2676" data-name="Caminho 2676" d="M117.94,57.939s7.478,6.864,15.774,6.864c3.278,0,6.965-1.333,6.965-5.225,0-7.779-29.707-7.58-29.707-27.863,0-12.188,10.243-20.18,23.356-20.18,14.239,0,21.2,7.479,21.2,7.479l-6.864,13.225a25.147,25.147,0,0,0-14.545-5.84c-3.278,0-6.965,1.434-6.965,5.121,0,8.3,29.707,6.864,29.707,27.658,0,10.961-8.4,20.486-23.252,20.486a34.1,34.1,0,0,1-24.072-9.423Z" transform="translate(174.512 18.376)" fill="#fff"/>
      <path id="Caminho_2677" data-name="Caminho 2677" d="M131.289,11.97h41.282V25.8h-25.2V37.784H167.45V51.614H147.372v12.4H173.8V77.835H131.188V11.97Z" transform="translate(208.998 19.069)" fill="#fff"/>
      <path id="Caminho_2678" data-name="Caminho 2678" d="M296.966,0H180.19a20.327,20.327,0,0,0-20.283,20.283v88.708a20.327,20.327,0,0,0,20.283,20.283H296.966a20.327,20.327,0,0,0,20.283-20.283V20.283A20.464,20.464,0,0,0,296.966,0M207.745,99.259H193.618V30.832h14.135Zm74.983,0H268.592V80.617H234.685V99.158H220.55V66.485h48.043V50.1a5.945,5.945,0,0,0-5.941-5.941H240.524a5.945,5.945,0,0,0-5.941,5.941v5.225H220.448V47.428a17.4,17.4,0,0,1,17.387-17.413h27.375A17.4,17.4,0,0,1,282.624,47.4V99.259Z" transform="translate(254.75 -0.001)" fill="#fff"/>
      <path id="Caminho_2679" data-name="Caminho 2679" d="M11.206,66.244a10.9,10.9,0,0,1-5.6-1.369A9.094,9.094,0,0,1,2.011,60.97a13.327,13.327,0,0,1-1.26-5.993,13.213,13.213,0,0,1,1.26-5.972,9.1,9.1,0,0,1,3.594-3.89,10.875,10.875,0,0,1,5.6-1.372,12.251,12.251,0,0,1,4.183.7,8.28,8.28,0,0,1,3.254,2.069l-1.058,2.3a9.8,9.8,0,0,0-2.959-1.864,9.2,9.2,0,0,0-3.361-.591A6.86,6.86,0,0,0,5.745,48.6a9.533,9.533,0,0,0-1.914,6.379,9.6,9.6,0,0,0,1.914,6.4,6.837,6.837,0,0,0,5.521,2.253,9.2,9.2,0,0,0,3.361-.589,9.815,9.815,0,0,0,2.959-1.867l1.058,2.3a8.677,8.677,0,0,1-3.254,2.054,12.07,12.07,0,0,1-4.183.716" transform="translate(1.196 69.689)" fill="#fff"/>
      <path id="Caminho_2680" data-name="Caminho 2680" d="M16,62.075a7.567,7.567,0,0,1-3.89-.965,6.5,6.5,0,0,1-2.552-2.738,9.059,9.059,0,0,1-.9-4.17,8.955,8.955,0,0,1,.9-4.154,6.521,6.521,0,0,1,2.552-2.723A7.567,7.567,0,0,1,16,46.361a7.58,7.58,0,0,1,3.89.965,6.515,6.515,0,0,1,2.549,2.723,8.955,8.955,0,0,1,.9,4.154,9.059,9.059,0,0,1-.9,4.17,6.494,6.494,0,0,1-2.549,2.738,7.58,7.58,0,0,1-3.89.965m0-2.24a4.053,4.053,0,0,0,3.267-1.45A6.355,6.355,0,0,0,20.484,54.2a6.3,6.3,0,0,0-1.214-4.17A4.071,4.071,0,0,0,16,48.6a4.071,4.071,0,0,0-3.252,1.431,6.233,6.233,0,0,0-1.232,4.17,6.285,6.285,0,0,0,1.232,4.183A4.054,4.054,0,0,0,16,59.835" transform="translate(13.795 73.858)" fill="#fff"/>
      <path id="Caminho_2681" data-name="Caminho 2681" d="M15.726,61.8V46.641H18.5v3.3h-.342a5.073,5.073,0,0,1,2.132-2.676,6.349,6.349,0,0,1,3.376-.9,6.2,6.2,0,0,1,3.018.653,4.067,4.067,0,0,1,1.774,2.007,8.452,8.452,0,0,1,.591,3.376v9.4H26.213V52.553a6.1,6.1,0,0,0-.342-2.209A2.4,2.4,0,0,0,24.8,49.068a3.793,3.793,0,0,0-1.851-.4,4.617,4.617,0,0,0-2.3.56,3.85,3.85,0,0,0-1.54,1.587,5.041,5.041,0,0,0-.545,2.4V61.8Z" transform="translate(25.053 73.858)" fill="#fff"/>
      <path id="Caminho_2682" data-name="Caminho 2682" d="M30.215,64.734a5.442,5.442,0,0,1-4.139-1.45,5.813,5.813,0,0,1-1.369-4.152V51.478H21.751V49.3h2.956V44.692h2.832V49.3H32.3v2.178H27.539v7.4a4,4,0,0,0,.716,2.583,2.887,2.887,0,0,0,2.365.871,4.285,4.285,0,0,0,.98-.109c.322-.07.628-.148.921-.233l.464,2.119a3.78,3.78,0,0,1-1.229.451,7.28,7.28,0,0,1-1.54.171" transform="translate(34.652 71.199)" fill="#fff"/>
      <path id="Caminho_2683" data-name="Caminho 2683" d="M26.887,61.872V46.718h2.769v3.61h-.311a4.891,4.891,0,0,1,1.8-2.816,6.589,6.589,0,0,1,3.454-1.1l.965-.093.218,2.458-1.774.156a5.015,5.015,0,0,0-3.158,1.338,4.2,4.2,0,0,0-1.1,3.081v8.526Z" transform="translate(42.834 73.781)" fill="#fff"/>
      <path id="Caminho_2684" data-name="Caminho 2684" d="M38.263,62.075a7.567,7.567,0,0,1-3.89-.965,6.5,6.5,0,0,1-2.552-2.738,9.059,9.059,0,0,1-.9-4.17,8.955,8.955,0,0,1,.9-4.154,6.521,6.521,0,0,1,2.552-2.723,8.324,8.324,0,0,1,7.779,0A6.515,6.515,0,0,1,44.7,50.048a8.955,8.955,0,0,1,.9,4.154,9.059,9.059,0,0,1-.9,4.17,6.5,6.5,0,0,1-2.549,2.738,7.58,7.58,0,0,1-3.89.965m0-2.24a4.053,4.053,0,0,0,3.267-1.45A6.355,6.355,0,0,0,42.744,54.2a6.3,6.3,0,0,0-1.214-4.17,4.427,4.427,0,0,0-6.519,0,6.233,6.233,0,0,0-1.232,4.17,6.285,6.285,0,0,0,1.232,4.183,4.054,4.054,0,0,0,3.252,1.45" transform="translate(49.258 73.858)" fill="#fff"/>
      <path id="Caminho_2685" data-name="Caminho 2685" d="M42.81,66.071a4.541,4.541,0,0,1-3.625-1.385,5.944,5.944,0,0,1-1.2-4V43.853h2.829V60.47a4.767,4.767,0,0,0,.3,1.787,2.1,2.1,0,0,0,.871,1.074,2.789,2.789,0,0,0,1.444.342c.228,0,.464-.01.7-.031a3.187,3.187,0,0,0,.669-.122l-.062,2.3a8.182,8.182,0,0,1-.983.189,7.872,7.872,0,0,1-.946.062" transform="translate(60.518 69.862)" fill="#fff"/>
      <path id="Caminho_2686" data-name="Caminho 2686" d="M49.155,62.077a8.76,8.76,0,0,1-4.216-.949,6.631,6.631,0,0,1-2.723-2.707,8.51,8.51,0,0,1-.965-4.157,8.639,8.639,0,0,1,.947-4.136,7.038,7.038,0,0,1,2.616-2.772,7.281,7.281,0,0,1,3.812-1,6.711,6.711,0,0,1,3.563.905A5.905,5.905,0,0,1,54.46,49.83a9.241,9.241,0,0,1,.794,4v1.029H43.46v-1.8h9.926l-.529.433a5.873,5.873,0,0,0-1.058-3.75,3.748,3.748,0,0,0-3.112-1.322,4.494,4.494,0,0,0-2.552.7,4.419,4.419,0,0,0-1.618,1.96,7.061,7.061,0,0,0-.56,2.91v.184a7.207,7.207,0,0,0,.6,3.127,4.183,4.183,0,0,0,1.761,1.9,5.766,5.766,0,0,0,2.832.638,8.163,8.163,0,0,0,2.6-.42,7.737,7.737,0,0,0,2.38-1.322L55,60.054a7.445,7.445,0,0,1-2.629,1.478,9.954,9.954,0,0,1-3.221.545" transform="translate(65.718 73.856)" fill="#fff"/>
      <path id="Caminho_2687" data-name="Caminho 2687" d="M57.468,66.071a6.439,6.439,0,0,1-3.5-.949,6.324,6.324,0,0,1-2.349-2.741,10.963,10.963,0,0,1-.016-8.368,6.219,6.219,0,0,1,2.336-2.707,6.488,6.488,0,0,1,3.532-.949,5.975,5.975,0,0,1,3.485,1.011,4.873,4.873,0,0,1,1.96,2.689h-.342v-10.2H65.4V65.791H62.6V62.272h.311a4.774,4.774,0,0,1-1.945,2.772,6,6,0,0,1-3.5,1.027m.653-2.24a4.053,4.053,0,0,0,3.267-1.45A6.355,6.355,0,0,0,62.6,58.2a6.3,6.3,0,0,0-1.214-4.17,4.427,4.427,0,0,0-6.519,0,6.233,6.233,0,0,0-1.232,4.17,6.285,6.285,0,0,0,1.232,4.183,4.054,4.054,0,0,0,3.252,1.45" transform="translate(80.895 69.862)" fill="#fff"/>
      <path id="Caminho_2688" data-name="Caminho 2688" d="M65.726,62.077a8.76,8.76,0,0,1-4.216-.949,6.631,6.631,0,0,1-2.723-2.707,8.511,8.511,0,0,1-.965-4.157,8.639,8.639,0,0,1,.947-4.136,7.038,7.038,0,0,1,2.616-2.772,7.281,7.281,0,0,1,3.812-1,6.71,6.71,0,0,1,3.563.905,5.9,5.9,0,0,1,2.272,2.565,9.241,9.241,0,0,1,.794,4v1.029H60.031v-1.8h9.926l-.529.433a5.873,5.873,0,0,0-1.058-3.75,3.748,3.748,0,0,0-3.112-1.322,4.494,4.494,0,0,0-2.552.7,4.419,4.419,0,0,0-1.618,1.96,7.06,7.06,0,0,0-.56,2.91v.184a7.207,7.207,0,0,0,.6,3.127,4.183,4.183,0,0,0,1.761,1.9,5.766,5.766,0,0,0,2.832.638,8.164,8.164,0,0,0,2.6-.42,7.736,7.736,0,0,0,2.38-1.322l.871,1.96a7.445,7.445,0,0,1-2.629,1.478,9.954,9.954,0,0,1-3.221.545" transform="translate(92.117 73.856)" fill="#fff"/>
      <path id="Caminho_2689" data-name="Caminho 2689" d="M67,65.791l9.709-21.938h2.458l9.709,21.938H85.921l-2.676-6.223,1.338.747H71.265l1.338-.747-2.645,6.223ZM77.893,47.12,73.039,58.6l-.747-.653H83.559l-.718.653L77.955,47.12Z" transform="translate(106.742 69.862)" fill="#fff"/>
      <path id="Caminho_2690" data-name="Caminho 2690" d="M83.614,62.077a7.76,7.76,0,0,1-3.983-.98,6.553,6.553,0,0,1-2.583-2.769,9.222,9.222,0,0,1-.9-4.216,8.852,8.852,0,0,1,.9-4.139A6.306,6.306,0,0,1,79.631,47.3a8.07,8.07,0,0,1,3.983-.936,8.291,8.291,0,0,1,2.816.5,6.1,6.1,0,0,1,2.287,1.4l-.936,1.989a6.2,6.2,0,0,0-1.958-1.211,5.677,5.677,0,0,0-2.023-.407,4.415,4.415,0,0,0-3.516,1.431,6.03,6.03,0,0,0-1.247,4.076A6.35,6.35,0,0,0,80.285,58.3,4.3,4.3,0,0,0,83.8,59.805a5.728,5.728,0,0,0,2.023-.4,6.043,6.043,0,0,0,1.958-1.247l.936,2.025a6.1,6.1,0,0,1-2.318,1.4,8.36,8.36,0,0,1-2.785.5" transform="translate(121.309 73.856)" fill="#fff"/>
      <path id="Caminho_2691" data-name="Caminho 2691" d="M89.63,62.077a8.76,8.76,0,0,1-4.216-.949,6.632,6.632,0,0,1-2.723-2.707,8.511,8.511,0,0,1-.965-4.157,8.639,8.639,0,0,1,.947-4.136,7.038,7.038,0,0,1,2.616-2.772,7.281,7.281,0,0,1,3.812-1,6.711,6.711,0,0,1,3.563.905,5.905,5.905,0,0,1,2.272,2.565,9.241,9.241,0,0,1,.793,4v1.029H83.935v-1.8h9.926l-.529.433a5.873,5.873,0,0,0-1.058-3.75,3.747,3.747,0,0,0-3.112-1.322,4.494,4.494,0,0,0-2.552.7,4.418,4.418,0,0,0-1.618,1.96,7.06,7.06,0,0,0-.56,2.91v.184a7.207,7.207,0,0,0,.6,3.127A4.183,4.183,0,0,0,86.8,59.2a5.766,5.766,0,0,0,2.832.638,8.164,8.164,0,0,0,2.6-.42,7.737,7.737,0,0,0,2.38-1.322l.871,1.96a7.445,7.445,0,0,1-2.629,1.478,9.954,9.954,0,0,1-3.221.545" transform="translate(130.199 73.856)" fill="#fff"/>
      <path id="Caminho_2692" data-name="Caminho 2692" d="M94.225,62.077a12.282,12.282,0,0,1-2.318-.218,9.831,9.831,0,0,1-2.082-.638,7.114,7.114,0,0,1-1.667-1.014l.84-1.96a8.414,8.414,0,0,0,1.618.952,8.624,8.624,0,0,0,1.807.573,9.459,9.459,0,0,0,1.864.189,4.428,4.428,0,0,0,2.585-.625,1.935,1.935,0,0,0,.869-1.647,1.684,1.684,0,0,0-.573-1.356,4.088,4.088,0,0,0-1.792-.729l-2.894-.594a5.679,5.679,0,0,1-2.909-1.444,3.578,3.578,0,0,1-.98-2.6,4.052,4.052,0,0,1,.762-2.445,4.866,4.866,0,0,1,2.132-1.6,8.3,8.3,0,0,1,3.143-.56,9.735,9.735,0,0,1,2.054.218,9.131,9.131,0,0,1,1.867.625,4.432,4.432,0,0,1,1.463,1.058l-.871,1.929a5.42,5.42,0,0,0-1.335-.934,7.657,7.657,0,0,0-1.558-.576,6.526,6.526,0,0,0-1.618-.2,4.129,4.129,0,0,0-2.533.653,2.046,2.046,0,0,0-.856,1.711,1.832,1.832,0,0,0,.513,1.338,3.207,3.207,0,0,0,1.634.775l2.891.594a6.445,6.445,0,0,1,3.052,1.382,3.333,3.333,0,0,1,1.024,2.567,3.994,3.994,0,0,1-.762,2.461,4.788,4.788,0,0,1-2.147,1.571,8.746,8.746,0,0,1-3.221.545" transform="translate(140.444 73.856)" fill="#fff"/>
      <path id="Caminho_2693" data-name="Caminho 2693" d="M100.021,62.077a12.281,12.281,0,0,1-2.318-.218,9.83,9.83,0,0,1-2.082-.638,7.112,7.112,0,0,1-1.667-1.014l.84-1.96a8.416,8.416,0,0,0,1.618.952,8.623,8.623,0,0,0,1.807.573,9.459,9.459,0,0,0,1.864.189,4.428,4.428,0,0,0,2.585-.625,1.935,1.935,0,0,0,.869-1.647,1.684,1.684,0,0,0-.573-1.356,4.088,4.088,0,0,0-1.792-.729l-2.894-.594a5.679,5.679,0,0,1-2.909-1.444,3.578,3.578,0,0,1-.98-2.6,4.051,4.051,0,0,1,.762-2.445,4.867,4.867,0,0,1,2.132-1.6,8.3,8.3,0,0,1,3.143-.56,9.734,9.734,0,0,1,2.054.218,9.131,9.131,0,0,1,1.867.625,4.432,4.432,0,0,1,1.463,1.058l-.871,1.929a5.421,5.421,0,0,0-1.335-.934,7.657,7.657,0,0,0-1.558-.576,6.525,6.525,0,0,0-1.618-.2,4.129,4.129,0,0,0-2.533.653,2.046,2.046,0,0,0-.856,1.711,1.832,1.832,0,0,0,.513,1.338,3.208,3.208,0,0,0,1.634.775l2.891.594a6.444,6.444,0,0,1,3.052,1.382,3.332,3.332,0,0,1,1.024,2.567,3.994,3.994,0,0,1-.762,2.461,4.788,4.788,0,0,1-2.147,1.571,8.747,8.747,0,0,1-3.221.545" transform="translate(149.678 73.856)" fill="#fff"/>
      <path id="Caminho_2694" data-name="Caminho 2694" d="M107.07,62.075a7.567,7.567,0,0,1-3.89-.965,6.5,6.5,0,0,1-2.552-2.738,9.059,9.059,0,0,1-.9-4.17,8.956,8.956,0,0,1,.9-4.154,6.521,6.521,0,0,1,2.552-2.723,8.324,8.324,0,0,1,7.779,0,6.515,6.515,0,0,1,2.549,2.723,8.956,8.956,0,0,1,.905,4.154,9.059,9.059,0,0,1-.905,4.17,6.494,6.494,0,0,1-2.549,2.738,7.58,7.58,0,0,1-3.89.965m0-2.24a4.054,4.054,0,0,0,3.267-1.45,6.356,6.356,0,0,0,1.214-4.183,6.3,6.3,0,0,0-1.214-4.17,4.427,4.427,0,0,0-6.519,0,6.234,6.234,0,0,0-1.232,4.17,6.285,6.285,0,0,0,1.232,4.183,4.054,4.054,0,0,0,3.252,1.45" transform="translate(158.875 73.858)" fill="#fff"/>
    </g>
  </g>
</svg>
